<svg width="180" height="50" viewBox="0 0 180 50" fill="none" xmlns="http://www.w3.org/2000/svg">
<path d="M41.5502 41.4446C37.781 45.3108 31.599 45.3863 27.7414 41.6133C25.8785 39.7912 24.9013 37.4046 24.8062 34.9895C24.8061 34.9816 24.8041 34.9757 24.804 34.9678C24.8067 34.857 24.8034 34.7444 24.8001 34.6278C24.8 34.6198 24.7999 34.6119 24.7979 34.606C24.7066 32.183 23.7234 29.7866 21.8525 27.9567C19.9816 26.1268 17.5684 25.2012 15.1458 25.1656C15.1398 25.1637 15.1319 25.1638 15.124 25.1639C15.0116 25.1672 14.899 25.1666 14.7846 25.168C14.7747 25.1661 14.7668 25.1662 14.7588 25.1663C12.3481 25.1305 9.94281 24.2049 8.08383 22.3867C4.22623 18.6136 4.15454 12.4215 7.9237 8.55532C11.6929 4.68914 17.8749 4.61364 21.7325 8.38668C23.5475 10.1619 24.5239 12.4773 24.6577 14.8326C24.6546 15.0759 24.6594 15.319 24.6721 15.5581C24.8002 17.9313 25.7807 20.2624 27.6097 22.0513C29.4387 23.8402 31.7907 24.7685 34.1604 24.8384C34.3974 24.8474 34.6323 24.8465 34.8651 24.8358C37.225 24.9078 39.5671 25.8303 41.3901 27.6133C45.2477 31.3864 45.3194 37.5784 41.5502 41.4446Z" fill="url(#paint0_linear_474_1191)"/>
<path d="M44.5559 13.7982C44.5559 18.3403 40.8799 22.0224 36.3452 22.0224C31.8105 22.0224 28.1345 18.3403 28.1345 13.7982C28.1345 9.25624 31.8105 5.57419 36.3452 5.57419C40.8799 5.57419 44.5559 9.25624 44.5559 13.7982Z" fill="url(#paint1_linear_474_1191)"/>
<path d="M21.3394 36.2018C21.3394 40.7438 17.6633 44.4258 13.1286 44.4258C8.59396 44.4258 4.91791 40.7438 4.91791 36.2018C4.91791 31.6597 8.59396 27.9777 13.1286 27.9777C17.6633 27.9777 21.3394 31.6597 21.3394 36.2018Z" fill="url(#paint2_linear_474_1191)"/>
<path d="M68.4841 23.3857C68.4841 19.1937 65.406 16.8031 61.7392 16.2834C60.1482 16.0755 57.9691 15.9023 56.4126 15.6598C54.9598 15.4173 53.9221 14.5858 53.9221 12.9921C53.9221 12.0913 54.2334 11.4677 54.7523 10.9133C55.7555 9.87398 57.3465 9.56218 58.7299 9.56218C60.0445 9.56218 61.6703 10.0472 62.4656 10.8787C63.0537 11.5023 63.5032 12.4377 63.5382 13.3039H68.1035C68.069 11.2598 67.0658 9.45822 65.6135 8.07239C63.9532 6.51336 61.3934 5.68188 58.7648 5.68188C55.8937 5.68188 53.1957 6.68662 51.5699 8.28027C50.2902 9.56218 49.4257 11.1905 49.4257 13.1307C49.4257 17.2189 52.2618 19.4362 55.6518 19.9905C57.2771 20.2676 59.4219 20.3369 61.0821 20.6488C62.6042 20.9259 63.9876 21.7574 63.9876 23.559C63.9876 24.7369 63.5726 25.3259 63.0193 25.9149C62.0854 26.8849 60.4595 27.2314 58.7648 27.2314C57.3465 27.2314 55.6862 26.9542 54.6485 25.9149C53.9221 25.1873 53.3689 24.1133 53.3689 22.9007H48.8029C48.8029 25.2219 49.9096 27.3007 51.3623 28.6172C53.3689 30.4534 56.1013 31.1463 58.6955 31.1463C61.7048 31.1463 64.5758 30.3842 66.4437 28.5133C67.654 27.3007 68.4841 25.6723 68.4841 23.3857Z" fill="white"/>
<path d="M87.8829 21.6881C87.8829 18.6393 87.1221 16.7338 85.7731 15.0362C84.5279 13.5118 82.2106 12.2299 79.4782 12.2299C76.7453 12.2299 74.4279 13.5118 73.1827 15.0362C71.8337 16.7338 71.0729 18.6393 71.0729 21.6881C71.0729 24.7369 71.8337 26.6424 73.1827 28.3401C74.4279 29.8645 76.7453 31.1463 79.4782 31.1463C82.2106 31.1463 84.5279 29.8645 85.7731 28.3401C87.1221 26.6424 87.8829 24.7369 87.8829 21.6881ZM83.4902 21.6881C83.4902 23.3857 83.2482 25.0834 82.2106 26.2267C81.6224 26.8503 80.654 27.3699 79.4782 27.3699C78.3018 27.3699 77.3335 26.8503 76.7453 26.2267C75.7076 25.0834 75.4656 23.3857 75.4656 21.6881C75.4656 19.9905 75.7076 18.2928 76.7453 17.1496C77.3335 16.5259 78.3018 16.0062 79.4782 16.0062C80.654 16.0062 81.6224 16.5259 82.2106 17.1496C83.2482 18.2928 83.4902 19.9905 83.4902 21.6881Z" fill="white"/>
<path d="M106.572 24.3212H102.318C102.283 24.9794 102.076 25.5337 101.799 25.9841C101.28 26.781 100.346 27.3353 99.0319 27.3353C97.8555 27.3353 96.9909 26.8156 96.4027 26.192C95.3651 25.0487 95.1924 23.3511 95.1924 21.6534C95.1924 19.9558 95.3651 18.2235 96.4027 17.0803C96.9909 16.4566 97.8555 15.9716 99.0319 15.9716C100.346 15.9716 101.28 16.5259 101.799 17.3228C102.076 17.7732 102.283 18.3275 102.318 18.9858H106.572C106.503 17.5653 106.019 16.1448 105.189 15.0708C103.943 13.5118 101.764 12.2299 99.0319 12.2299C96.299 12.2299 94.0161 13.5464 92.7709 15.0708C91.4219 16.7684 90.7993 19.0204 90.7993 21.6534C90.7993 24.2865 91.4219 26.5385 92.7709 28.2361C94.0161 29.7605 96.299 31.077 99.0319 31.077C101.764 31.077 103.943 29.7952 105.189 28.2361C106.019 27.1621 106.503 25.7416 106.572 24.3212Z" fill="white"/>
<path d="M114.986 10.1858V5.71649H110.351V10.1858H114.986ZM114.882 30.6959V12.6803H110.49V30.6959H114.882Z" fill="white"/>
<path d="M135.986 30.4881V27.3007C135.986 27.3007 135.71 27.3699 135.433 27.3699C134.706 27.3699 134.43 27.0582 134.43 26.2267V19.5401C134.43 18.3275 134.361 17.0456 133.911 15.9023C132.873 13.2 130.244 12.2299 127.166 12.2299C123.154 12.2299 119.937 14.0314 119.695 18.0849H123.88C123.984 16.422 125.16 15.5212 127.166 15.5212C129.622 15.5212 130.21 16.6645 130.21 18.3621V19.4708L124.918 19.8519C121.494 20.0944 118.83 22.0692 118.83 25.4991C118.83 28.444 121.044 31.1463 125.333 31.1463C127.893 31.1463 129.968 29.8991 130.798 28.444C130.936 29.7952 131.974 30.9731 133.842 30.9731C134.88 30.9731 135.26 30.7999 135.986 30.4881ZM130.21 23.5243C130.21 26.192 128.308 27.6471 125.61 27.6471C124.261 27.6471 123.05 26.781 123.05 25.3952C123.05 23.9401 124.33 23.1432 125.644 23.0393L130.21 22.6928V23.5243Z" fill="white"/>
<path d="M146.451 30.6613V27.0235C146.209 27.0235 146.105 27.0582 145.724 27.0582C144.237 27.0582 143.994 26.3653 143.994 25.3259V5.64722H139.636V26.0534C139.636 29.4833 141.608 30.9038 144.548 30.9038C145.413 30.9038 145.586 30.8345 146.451 30.6613Z" fill="white"/>
<path d="M167.3 10.1858V6.13226H150.35V30.6959H154.813V20.822H165.951V16.7684H154.813V10.1858H167.3Z" fill="white"/>
<path d="M175.078 10.1858V5.71649H170.443V10.1858H175.078ZM174.974 30.6959V12.6803H170.582V30.6959H174.974Z" fill="white"/>
<path d="M54.3942 42.3868L52.0745 35.812H51.1135L48.8029 42.3868H49.6347L50.1614 40.8289H53.0079L53.5439 42.3868H54.3942ZM52.7399 40.0499H50.4201L51.5753 36.6373L52.7399 40.0499Z" fill="white"/>
<path d="M58.9153 40.8103H58.1206C58.0837 41.1163 57.9731 41.3296 57.8064 41.5058C57.6219 41.7005 57.3352 41.8211 57.0116 41.8211C56.6511 41.8211 56.4018 41.6913 56.1982 41.5151C55.8289 41.1998 55.7271 40.6156 55.7271 40.0406C55.7271 39.4657 55.8289 38.8814 56.1982 38.5662C56.4018 38.3899 56.6511 38.2601 57.0116 38.2601C57.3165 38.2601 57.5846 38.3714 57.7695 38.5476C57.945 38.7238 58.0655 38.9557 58.1024 39.2802H58.8972C58.8603 38.7702 58.6567 38.3807 58.3424 38.0747C58.0193 37.7594 57.5664 37.5739 57.0116 37.5739C56.1707 37.5739 55.6439 37.9634 55.311 38.4549C55.0617 38.8258 54.923 39.3359 54.923 40.0406C54.923 40.7454 55.0617 41.2554 55.311 41.6264C55.6439 42.1179 56.18 42.5073 57.021 42.5073C57.5939 42.5073 58.0375 42.3219 58.3704 41.9973C58.6847 41.6913 58.8785 41.3111 58.9153 40.8103Z" fill="white"/>
<path d="M64.121 42.3404V41.7562C64.121 41.7562 64.001 41.7841 63.9174 41.7841C63.7605 41.7841 63.6587 41.7191 63.6587 41.4687V39.1967C63.6587 38.9278 63.6125 38.6867 63.52 38.4734C63.2982 37.9634 62.7808 37.5739 61.875 37.5739C61.302 37.5739 60.7478 37.7408 60.4335 38.0747C60.193 38.325 60.0361 38.6311 60.0268 39.0577H60.794C60.794 38.8258 60.8771 38.6403 61.0246 38.4919C61.182 38.3343 61.45 38.2138 61.875 38.2138C62.2541 38.2138 62.4853 38.3065 62.6422 38.4549C62.8546 38.6496 62.8826 38.9371 62.8826 39.1689V39.512L61.4594 39.5955C60.1837 39.6697 59.7957 40.4579 59.7957 41.0607C59.7957 41.7841 60.3317 42.5073 61.4038 42.5073C62.0599 42.5073 62.6422 42.2106 62.9102 41.7377H62.9289C62.9289 42.1364 63.1875 42.4517 63.6031 42.4517C63.7974 42.4517 63.9548 42.4239 64.121 42.3404ZM62.8826 40.4023C62.8826 40.7918 62.7622 41.1813 62.4853 41.4687C62.2354 41.7284 61.8843 41.849 61.5238 41.849C60.8584 41.849 60.5997 41.4595 60.5997 41.0421C60.5997 40.4486 61.154 40.2261 61.6256 40.1983L62.8826 40.1241V40.4023Z" fill="white"/>
<path d="M69.1446 42.3868V35.6914H68.3592V38.2416C68.1094 37.815 67.5089 37.5739 67.0004 37.5739C66.4555 37.5739 66.0208 37.7594 65.7158 38.0468C65.2447 38.5012 65.0042 39.2431 65.0042 40.0499C65.0042 40.8288 65.2354 41.5429 65.679 41.9973C65.9839 42.3126 66.4275 42.5073 67.0004 42.5073C67.5276 42.5073 68.1281 42.2477 68.3961 41.7748L68.4517 42.3868H69.1446ZM68.4055 40.0406C68.4055 40.6248 68.2761 41.1905 67.8876 41.5336C67.7032 41.7005 67.472 41.8397 67.1302 41.8397C66.0857 41.8397 65.8083 40.9031 65.8083 40.0406C65.8083 39.1782 66.0857 38.2416 67.1302 38.2416C67.472 38.2416 67.7032 38.3807 67.8876 38.5476C68.2761 38.8907 68.4055 39.4564 68.4055 40.0406Z" fill="white"/>
<path d="M74.632 39.8274C74.6414 39.1967 74.4196 38.594 74.0404 38.1767C73.6986 37.8057 73.2181 37.5739 72.6172 37.5739C71.8037 37.5739 71.1846 37.9912 70.8521 38.5569C70.5934 38.9927 70.4916 39.4935 70.4916 40.0592C70.4916 40.7268 70.6854 41.3482 71.0739 41.8026C71.4344 42.2292 71.9705 42.5073 72.6265 42.5073C73.0701 42.5073 73.4862 42.3776 73.8186 42.155C74.1978 41.8953 74.4747 41.4595 74.5396 40.9958H73.7724C73.708 41.2462 73.6244 41.376 73.495 41.5058C73.3012 41.7098 72.9963 41.8118 72.6265 41.8118C72.266 41.8118 71.9793 41.6913 71.7669 41.478C71.4806 41.1905 71.3139 40.7268 71.3139 40.3003H74.6227L74.632 39.8274ZM73.828 39.6233H71.3326C71.3508 38.9371 71.7669 38.2416 72.6172 38.2416C73.0332 38.2416 73.3475 38.4085 73.5412 38.6682C73.7262 38.9185 73.828 39.2709 73.828 39.6233Z" fill="white"/>
<path d="M82.4211 42.3868V39.2987C82.4211 38.2601 81.9219 37.5739 80.8591 37.5739C80.2675 37.5739 79.667 37.8799 79.4172 38.4642C79.2141 37.8892 78.7149 37.5739 78.0215 37.5739C77.4948 37.5739 76.9587 37.8335 76.7094 38.3622L76.6356 37.6945H75.9515V42.3868H76.7369V39.8923C76.7369 39.5028 76.82 39.002 77.0512 38.7052C77.2454 38.4549 77.5135 38.2879 77.8459 38.2879C78.5949 38.2879 78.7887 38.7424 78.7887 39.4008V42.3868H79.5746V39.8923C79.5746 39.4008 79.6577 38.9278 79.9719 38.6032C80.1569 38.4085 80.3875 38.2879 80.6836 38.2879C81.4227 38.2879 81.6352 38.7424 81.6352 39.4008V42.3868H82.4211Z" fill="white"/>
<path d="M87.7157 37.6945H86.8934L85.5808 41.3946L84.2038 37.6945H83.3166L85.1834 42.3868L84.8879 43.175C84.7585 43.5274 84.518 43.648 84.1856 43.648C83.8807 43.648 83.6308 43.5738 83.6308 43.5738V44.26C83.6958 44.2786 83.9544 44.3528 84.3425 44.3528C85.0447 44.3528 85.387 43.954 85.6088 43.3513L87.7157 37.6945Z" fill="white"/>
<defs>
<linearGradient id="paint0_linear_474_1191" x1="175.078" y1="5.57417" x2="157.16" y2="80.725" gradientUnits="userSpaceOnUse">
<stop stop-color="#EA5C36"/>
<stop offset="0.654167" stop-color="#EC3C2B"/>
<stop offset="0.9999" stop-color="#EE2222"/>
</linearGradient>
<linearGradient id="paint1_linear_474_1191" x1="175.078" y1="5.57419" x2="157.16" y2="80.7251" gradientUnits="userSpaceOnUse">
<stop stop-color="#EA5C36"/>
<stop offset="0.654167" stop-color="#EC3C2B"/>
<stop offset="0.9999" stop-color="#EE2222"/>
</linearGradient>
<linearGradient id="paint2_linear_474_1191" x1="175.078" y1="5.57418" x2="157.16" y2="80.7251" gradientUnits="userSpaceOnUse">
<stop stop-color="#EA5C36"/>
<stop offset="0.654167" stop-color="#EC3C2B"/>
<stop offset="0.9999" stop-color="#EE2222"/>
</linearGradient>
</defs>
</svg>
