<svg width="180" height="50" viewBox="0 0 180 50" fill="none" xmlns="http://www.w3.org/2000/svg">
<g clip-path="url(#clip0_732_1412)">
<path d="M41.5521 41.4446C37.7829 45.3109 31.6009 45.3864 27.7433 41.6133C25.8804 39.7912 24.9032 37.4047 24.8081 34.9896C24.808 34.9816 24.806 34.9757 24.8059 34.9678C24.8085 34.8571 24.8053 34.7444 24.802 34.6278C24.8019 34.6199 24.8018 34.612 24.7997 34.6061C24.7085 32.183 23.7253 29.7866 21.8544 27.9567C19.9835 26.1268 17.5703 25.2013 15.1477 25.1656C15.1417 25.1637 15.1338 25.1638 15.1259 25.1639C15.0135 25.1672 14.9009 25.1666 14.7864 25.168C14.7766 25.1661 14.7686 25.1662 14.7607 25.1663C12.35 25.1305 9.9447 24.2049 8.08572 22.3867C4.22812 18.6136 4.15643 12.4216 7.92559 8.55535C11.6948 4.68917 17.8768 4.61367 21.7344 8.38671C23.5494 10.1619 24.5258 12.4773 24.6596 14.8326C24.6565 15.0759 24.6613 15.319 24.6739 15.5581C24.8021 17.9313 25.7826 20.2625 27.6116 22.0514C29.4405 23.8402 31.7926 24.7685 34.1623 24.8385C34.3993 24.8475 34.6342 24.8465 34.867 24.8358C37.2269 24.9078 39.569 25.8303 41.392 27.6133C45.2496 31.3864 45.3213 37.5785 41.5521 41.4446Z" fill="url(#paint0_linear_732_1412)"/>
<path d="M44.5578 13.7983C44.5578 18.3403 40.8818 22.0224 36.3471 22.0224C31.8124 22.0224 28.1364 18.3403 28.1364 13.7983C28.1364 9.25627 31.8124 5.57422 36.3471 5.57422C40.8818 5.57422 44.5578 9.25627 44.5578 13.7983Z" fill="url(#paint1_linear_732_1412)"/>
<path d="M21.3413 36.2018C21.3413 40.7438 17.6652 44.4258 13.1305 44.4258C8.59585 44.4258 4.9198 40.7438 4.9198 36.2018C4.9198 31.6597 8.59585 27.9777 13.1305 27.9777C17.6652 27.9777 21.3413 31.6597 21.3413 36.2018Z" fill="url(#paint2_linear_732_1412)"/>
<path d="M68.486 23.3857C68.486 19.1937 65.4079 16.8031 61.7411 16.2834C60.1501 16.0755 57.971 15.9023 56.4145 15.6598C54.9617 15.4173 53.924 14.5858 53.924 12.9921C53.924 12.0913 54.2353 11.4677 54.7542 10.9133C55.7574 9.87398 57.3484 9.56218 58.7318 9.56218C60.0463 9.56218 61.6722 10.0472 62.4674 10.8787C63.0556 11.5023 63.5051 12.4377 63.5401 13.3039H68.1054C68.0709 11.2598 67.0677 9.45822 65.6154 8.07239C63.9551 6.51336 61.3953 5.68188 58.7667 5.68188C55.8956 5.68188 53.1976 6.68662 51.5718 8.28027C50.2921 9.56218 49.4276 11.1905 49.4276 13.1307C49.4276 17.2189 52.2637 19.4362 55.6537 19.9905C57.279 20.2676 59.4237 20.3369 61.084 20.6488C62.6061 20.9259 63.9895 21.7574 63.9895 23.559C63.9895 24.7369 63.5745 25.3259 63.0212 25.9149C62.0873 26.8849 60.4614 27.2314 58.7667 27.2314C57.3484 27.2314 55.6881 26.9542 54.6504 25.9149C53.924 25.1873 53.3708 24.1133 53.3708 22.9007H48.8047C48.8047 25.2219 49.9115 27.3007 51.3642 28.6172C53.3708 30.4534 56.1032 31.1463 58.6974 31.1463C61.7066 31.1463 64.5777 30.3842 66.4456 28.5133C67.6559 27.3007 68.486 25.6723 68.486 23.3857Z" fill="black"/>
<path d="M87.8848 21.6881C87.8848 18.6393 87.124 16.7338 85.775 15.0362C84.5298 13.5118 82.2125 12.2299 79.4801 12.2299C76.7472 12.2299 74.4298 13.5118 73.1846 15.0362C71.8356 16.7338 71.0748 18.6393 71.0748 21.6881C71.0748 24.7369 71.8356 26.6424 73.1846 28.3401C74.4298 29.8645 76.7472 31.1463 79.4801 31.1463C82.2125 31.1463 84.5298 29.8645 85.775 28.3401C87.124 26.6424 87.8848 24.7369 87.8848 21.6881ZM83.4921 21.6881C83.4921 23.3857 83.2501 25.0834 82.2125 26.2267C81.6243 26.8503 80.6559 27.3699 79.4801 27.3699C78.3037 27.3699 77.3354 26.8503 76.7472 26.2267C75.7095 25.0834 75.4675 23.3857 75.4675 21.6881C75.4675 19.9905 75.7095 18.2928 76.7472 17.1496C77.3354 16.5259 78.3037 16.0062 79.4801 16.0062C80.6559 16.0062 81.6243 16.5259 82.2125 17.1496C83.2501 18.2928 83.4921 19.9905 83.4921 21.6881Z" fill="black"/>
<path d="M106.574 24.3212H102.319C102.285 24.9794 102.077 25.5337 101.801 25.9841C101.282 26.781 100.348 27.3353 99.0338 27.3353C97.8574 27.3353 96.9928 26.8156 96.4046 26.192C95.367 25.0487 95.1943 23.3511 95.1943 21.6534C95.1943 19.9558 95.367 18.2235 96.4046 17.0803C96.9928 16.4566 97.8574 15.9716 99.0338 15.9716C100.348 15.9716 101.282 16.5259 101.801 17.3228C102.077 17.7732 102.285 18.3275 102.319 18.9858H106.574C106.505 17.5653 106.021 16.1448 105.191 15.0708C103.945 13.5118 101.766 12.2299 99.0338 12.2299C96.3009 12.2299 94.018 13.5464 92.7727 15.0708C91.4238 16.7684 90.8011 19.0204 90.8011 21.6534C90.8011 24.2865 91.4238 26.5385 92.7727 28.2361C94.018 29.7605 96.3009 31.077 99.0338 31.077C101.766 31.077 103.945 29.7952 105.191 28.2361C106.021 27.1621 106.505 25.7416 106.574 24.3212Z" fill="black"/>
<path d="M114.988 10.1858V5.71655H110.353V10.1858H114.988ZM114.884 30.696V12.6803H110.492V30.696H114.884Z" fill="black"/>
<path d="M135.988 30.4881V27.3007C135.988 27.3007 135.712 27.3699 135.435 27.3699C134.708 27.3699 134.432 27.0582 134.432 26.2267V19.5401C134.432 18.3275 134.363 17.0456 133.913 15.9023C132.875 13.2 130.246 12.2299 127.168 12.2299C123.156 12.2299 119.939 14.0314 119.697 18.0849H123.882C123.986 16.422 125.162 15.5212 127.168 15.5212C129.624 15.5212 130.212 16.6645 130.212 18.3621V19.4708L124.92 19.8519C121.495 20.0944 118.832 22.0692 118.832 25.4991C118.832 28.444 121.046 31.1463 125.335 31.1463C127.895 31.1463 129.969 29.8991 130.8 28.444C130.938 29.7952 131.976 30.9731 133.844 30.9731C134.882 30.9731 135.262 30.7999 135.988 30.4881ZM130.212 23.5243C130.212 26.192 128.31 27.6471 125.612 27.6471C124.263 27.6471 123.052 26.781 123.052 25.3952C123.052 23.9401 124.332 23.1432 125.646 23.0393L130.212 22.6928V23.5243Z" fill="black"/>
<path d="M146.452 30.6613V27.0235C146.21 27.0235 146.107 27.0582 145.726 27.0582C144.239 27.0582 143.996 26.3653 143.996 25.3259V5.64722H139.638V26.0534C139.638 29.4833 141.61 30.9038 144.55 30.9038C145.415 30.9038 145.588 30.8345 146.452 30.6613Z" fill="black"/>
<path d="M167.301 10.1858V6.13232H150.352V30.696H154.814V20.822H165.952V16.7685H154.814V10.1858H167.301Z" fill="black"/>
<path d="M175.08 10.1858V5.71655H170.445V10.1858H175.08ZM174.976 30.696V12.6803H170.584V30.696H174.976Z" fill="black"/>
<path d="M54.3961 42.3868L52.0764 35.812H51.1154L48.8047 42.3868H49.6366L50.1633 40.8289H53.0098L53.5458 42.3868H54.3961ZM52.7417 40.0499H50.422L51.5772 36.6373L52.7417 40.0499Z" fill="black"/>
<path d="M58.9172 40.8104H58.1224C58.0856 41.1164 57.9749 41.3297 57.8082 41.5059C57.6238 41.7006 57.337 41.8212 57.0135 41.8212C56.653 41.8212 56.4036 41.6914 56.2 41.5152C55.8307 41.1999 55.7289 40.6157 55.7289 40.0407C55.7289 39.4658 55.8307 38.8815 56.2 38.5662C56.4036 38.39 56.653 38.2602 57.0135 38.2602C57.3184 38.2602 57.5864 38.3715 57.7713 38.5477C57.9469 38.7239 58.0674 38.9557 58.1042 39.2803H58.899C58.8621 38.7702 58.6585 38.3808 58.3442 38.0747C58.0211 37.7594 57.5682 37.574 57.0135 37.574C56.1725 37.574 55.6458 37.9634 55.3128 38.4549C55.0635 38.8259 54.9248 39.3359 54.9248 40.0407C54.9248 40.7454 55.0635 41.2555 55.3128 41.6264C55.6458 42.1179 56.1818 42.5074 57.0228 42.5074C57.5957 42.5074 58.0393 42.3219 58.3723 41.9974C58.6865 41.6914 58.8803 41.3112 58.9172 40.8104Z" fill="black"/>
<path d="M64.1228 42.3405V41.7563C64.1228 41.7563 64.0028 41.7841 63.9192 41.7841C63.7623 41.7841 63.6605 41.7192 63.6605 41.4688V39.1968C63.6605 38.9279 63.6143 38.6868 63.5218 38.4735C63.3 37.9634 62.7827 37.574 61.8768 37.574C61.3038 37.574 60.7496 37.7409 60.4353 38.0747C60.1949 38.3251 60.038 38.6311 60.0286 39.0577H60.7958C60.7958 38.8259 60.8789 38.6404 61.0265 38.492C61.1838 38.3344 61.4519 38.2138 61.8768 38.2138C62.256 38.2138 62.4871 38.3066 62.644 38.4549C62.8564 38.6497 62.8845 38.9371 62.8845 39.169V39.5121L61.4612 39.5955C60.1855 39.6698 59.7975 40.458 59.7975 41.0608C59.7975 41.7841 60.3335 42.5074 61.4057 42.5074C62.0617 42.5074 62.644 42.2106 62.912 41.7377H62.9307C62.9307 42.1365 63.1894 42.4518 63.6049 42.4518C63.7992 42.4518 63.9566 42.4239 64.1228 42.3405ZM62.8845 40.4024C62.8845 40.7918 62.764 41.1813 62.4871 41.4688C62.2373 41.7284 61.8861 41.849 61.5256 41.849C60.8602 41.849 60.6016 41.4595 60.6016 41.0422C60.6016 40.4487 61.1558 40.2262 61.6274 40.1983L62.8845 40.1242V40.4024Z" fill="black"/>
<path d="M69.1465 42.3868V35.6914H68.3611V38.2416C68.1113 37.815 67.5108 37.5739 67.0023 37.5739C66.4574 37.5739 66.0226 37.7594 65.7177 38.0468C65.2466 38.5013 65.0061 39.2431 65.0061 40.0499C65.0061 40.8289 65.2373 41.543 65.6808 41.9974C65.9858 42.3127 66.4294 42.5074 67.0023 42.5074C67.5295 42.5074 68.13 42.2477 68.398 41.7748L68.4536 42.3868H69.1465ZM68.4073 40.0407C68.4073 40.6249 68.278 41.1905 67.8895 41.5337C67.7051 41.7006 67.4739 41.8397 67.1321 41.8397C66.0876 41.8397 65.8102 40.9031 65.8102 40.0407C65.8102 39.1782 66.0876 38.2416 67.1321 38.2416C67.4739 38.2416 67.7051 38.3807 67.8895 38.5476C68.278 38.8908 68.4073 39.4564 68.4073 40.0407Z" fill="black"/>
<path d="M74.6339 39.8274C74.6433 39.1968 74.4215 38.5941 74.0423 38.1767C73.7005 37.8058 73.22 37.574 72.6191 37.574C71.8056 37.574 71.1865 37.9913 70.854 38.5569C70.5953 38.9928 70.4935 39.4935 70.4935 40.0593C70.4935 40.7269 70.6873 41.3482 71.0758 41.8027C71.4363 42.2292 71.9724 42.5074 72.6284 42.5074C73.072 42.5074 73.4881 42.3776 73.8205 42.155C74.1997 41.8954 74.4766 41.4595 74.5415 40.9959H73.7743C73.7099 41.2462 73.6262 41.3761 73.4969 41.5059C73.3031 41.7099 72.9982 41.8119 72.6284 41.8119C72.2679 41.8119 71.9812 41.6914 71.7688 41.4781C71.4825 41.1906 71.3158 40.7269 71.3158 40.3003H74.6246L74.6339 39.8274ZM73.8299 39.6234H71.3345C71.3527 38.9372 71.7688 38.2416 72.6191 38.2416C73.0351 38.2416 73.3494 38.4086 73.5431 38.6682C73.7281 38.9186 73.8299 39.271 73.8299 39.6234Z" fill="black"/>
<path d="M82.423 42.3869V39.2988C82.423 38.2602 81.9238 37.574 80.861 37.574C80.2694 37.574 79.6689 37.88 79.4191 38.4642C79.216 37.8893 78.7168 37.574 78.0234 37.574C77.4967 37.574 76.9606 37.8336 76.7113 38.3622L76.6375 37.6945H75.9534V42.3869H76.7388V39.8923C76.7388 39.5028 76.8219 39.002 77.0531 38.7053C77.2473 38.4549 77.5154 38.288 77.8478 38.288C78.5968 38.288 78.7906 38.7424 78.7906 39.4008V42.3869H79.5765V39.8923C79.5765 39.4008 79.6596 38.9279 79.9738 38.6033C80.1588 38.4085 80.3894 38.288 80.6855 38.288C81.4246 38.288 81.6371 38.7424 81.6371 39.4008V42.3869H82.423Z" fill="black"/>
<path d="M87.7176 37.6945H86.8953L85.5827 41.3946L84.2057 37.6945H83.3185L85.1853 42.3868L84.8898 43.175C84.7604 43.5274 84.5199 43.648 84.1875 43.648C83.8826 43.648 83.6327 43.5738 83.6327 43.5738V44.26C83.6977 44.2786 83.9563 44.3528 84.3444 44.3528C85.0466 44.3528 85.3889 43.954 85.6107 43.3513L87.7176 37.6945Z" fill="black"/>
</g>
<defs>
<linearGradient id="paint0_linear_732_1412" x1="175.08" y1="5.5742" x2="157.162" y2="80.7251" gradientUnits="userSpaceOnUse">
<stop stop-color="#EA5C36"/>
<stop offset="0.654167" stop-color="#EC3C2B"/>
<stop offset="0.9999" stop-color="#EE2222"/>
</linearGradient>
<linearGradient id="paint1_linear_732_1412" x1="175.08" y1="5.57422" x2="157.162" y2="80.7251" gradientUnits="userSpaceOnUse">
<stop stop-color="#EA5C36"/>
<stop offset="0.654167" stop-color="#EC3C2B"/>
<stop offset="0.9999" stop-color="#EE2222"/>
</linearGradient>
<linearGradient id="paint2_linear_732_1412" x1="175.08" y1="5.57418" x2="157.162" y2="80.7251" gradientUnits="userSpaceOnUse">
<stop stop-color="#EA5C36"/>
<stop offset="0.654167" stop-color="#EC3C2B"/>
<stop offset="0.9999" stop-color="#EE2222"/>
</linearGradient>
<clipPath id="clip0_732_1412">
<rect width="180" height="48.6875" fill="white" transform="translate(0 0.65625)"/>
</clipPath>
</defs>
</svg>
