<svg width="800" height="800" viewBox="0 0 800 800" fill="none" xmlns="http://www.w3.org/2000/svg">
<path fill-rule="evenodd" clip-rule="evenodd" d="M400 0C620.937 0 800 179.063 800 400C800 620.937 620.937 800 400 800C179.063 800 0 620.937 0 400C0 179.063 179.063 0 400 0Z" fill="url(#paint0_radial_1_9)"/>
<path d="M254.219 308.906C334.688 230.312 465.312 230.312 545.781 308.906L555.469 318.437C559.531 322.344 559.531 328.75 555.469 332.656L522.344 365C520.312 367.031 517.031 367.031 515 365L501.719 352.031C445.469 297.187 354.531 297.187 298.281 352.031L284.062 365.938C282.031 367.969 278.75 367.969 276.719 365.938L243.594 333.594C239.531 329.687 239.531 323.281 243.594 319.375L254.219 308.906ZM614.375 375.781L643.906 404.531C647.969 408.437 647.969 414.844 643.906 418.75L510.938 548.594C506.875 552.5 500.313 552.5 496.406 548.594L402.031 456.406C401.094 455.469 399.375 455.469 398.438 456.406L304.063 548.594C300 552.5 293.437 552.5 289.531 548.594L156.094 418.75C152.031 414.844 152.031 408.437 156.094 404.531L185.625 375.781C189.687 371.875 196.25 371.875 200.156 375.781L294.531 467.969C295.469 468.906 297.187 468.906 298.125 467.969L392.5 375.781C396.563 371.875 403.125 371.875 407.031 375.781L501.406 467.969C502.344 468.906 504.063 468.906 505 467.969L599.375 375.781C603.75 371.875 610.313 371.875 614.375 375.781Z" fill="white"/>
<defs>
<radialGradient id="paint0_radial_1_9" cx="0" cy="0" r="1" gradientUnits="userSpaceOnUse" gradientTransform="translate(0.00247955 400.012) scale(800)">
<stop stop-color="#5D9DF6"/>
<stop offset="1" stop-color="#006FFF"/>
</radialGradient>
</defs>
</svg>
